<svg width="16" height="16" viewBox="0 0 16 16" fill="none" xmlns="http://www.w3.org/2000/svg">
<path d="M15.5308 14.9958C15.3039 14.9958 15.1068 14.8317 15.0689 14.6041C14.7306 12.629 12.8181 9.18188 7.96666 8.98044V11.5146C7.96666 11.6902 7.86853 11.8511 7.71241 11.9314C7.55625 12.0117 7.36831 11.9981 7.22544 11.896L0.196281 6.87519C0.0730938 6.78719 0 6.6451 0 6.49372C0 6.34232 0.0730938 6.20026 0.196281 6.11229L7.22547 1.09147C7.36831 0.989412 7.55628 0.975755 7.71241 1.0561C7.86853 1.13644 7.96666 1.29732 7.96666 1.47291V4.04526C10.9655 4.34438 16 6.50901 16 14.5271C16 14.771 15.813 14.9741 15.5699 14.9942C15.5568 14.9953 15.5438 14.9958 15.5308 14.9958Z" fill="white"/>
</svg>
