<svg height="512pt" viewBox="-47 0 512 512" width="512pt" xmlns="http://www.w3.org/2000/svg"><path d="m417.574219 435.710938c0 42.132812-34.15625 76.289062-76.289063 76.289062h-264.996094c-42.132812 0-76.289062-34.15625-76.289062-76.289062v-206.863282c0-9.160156 4.238281-17.808594 11.480469-23.421875l144.9375-112.328125c5.195312-4.027344 11.582031-6.210937 18.152343-6.210937h213.367188c16.367188 0 29.636719 13.265625 29.636719 29.632812zm0 0" fill="#f76937"/><path d="m387.941406 86.886719h-41.617187c16.367187 0 29.636719 13.265625 29.636719 29.632812v319.1875c0 42.136719-34.15625 76.292969-76.292969 76.292969h41.613281c42.136719 0 76.292969-34.15625 76.292969-76.292969v-319.1875c0-16.367187-13.265625-29.632812-29.632813-29.632812zm0 0" fill="#ea552d"/><path d="m221.445312 54.277344h136.238282v32.609375h-136.238282zm0 0" fill="#cdcdcd"/><path d="m329.511719 54.277344h28.171875v32.609375h-28.171875zm0 0" fill="#bebebe"/><path d="m381.605469 7.308594c0-4.035156-3.269531-7.308594-7.308594-7.308594h-169.46875c-4.035156 0-7.308594 3.273438-7.308594 7.308594v39.664062c0 4.035156 3.273438 7.304688 7.308594 7.304688h169.46875c4.039063 0 7.308594-3.269532 7.308594-7.304688zm0 0" fill="#5a5a5a"/><path d="m355.496094 0v54.277344h18.800781c4.039063 0 7.308594-3.269532 7.308594-7.304688v-39.664062c0-4.035156-3.269531-7.308594-7.308594-7.308594zm0 0" fill="#464646"/><path d="m263.453125 314.894531c0 30.191407-24.472656 54.667969-54.667969 54.667969-30.191406 0-54.664062-24.476562-54.664062-54.667969 0-24.339843 35.535156-65.058593 49.304687-79.921875 1.382813-1.492187 3.328125-2.339844 5.363281-2.339844 2.035157 0 3.980469.851563 5.363282 2.347657 13.773437 14.867187 49.300781 55.574219 49.300781 79.914062zm0 0" fill="#5a5a5a"/><path d="m214.152344 234.980469c-1.382813-1.492188-3.324219-2.339844-5.359375-2.34375-2.035157 0-3.984375.84375-5.367188 2.335937-1.921875 2.078125-4.269531 4.660156-6.886719 7.625 16.113282 18.292969 42.417969 51.351563 42.417969 72.296875 0 25.976563-18.125 47.707031-42.417969 53.269531 3.9375.902344 8.035157 1.398438 12.246094 1.398438 30.195313 0 54.667969-24.476562 54.667969-54.667969 0-24.335937-35.523437-65.046875-49.300781-79.914062zm0 0" fill="#464646"/><g fill="#d1462a"><path d="m293.132812 222.597656c-1.917968 0-3.839843-.730468-5.304687-2.195312-2.929687-2.929688-2.929687-7.679688 0-10.605469l31.667969-31.667969c2.929687-2.929687 7.679687-2.929687 10.605468 0 2.929688 2.929688 2.929688 7.675782 0 10.605469l-31.667968 31.667969c-1.460938 1.460937-3.382813 2.195312-5.300782 2.195312zm0 0"/><path d="m92.773438 422.953125c-1.917969 0-3.839844-.730469-5.300782-2.195313-2.929687-2.929687-2.929687-7.675781 0-10.605468l31.667969-31.667969c2.925781-2.929687 7.675781-2.929687 10.605469 0 2.929687 2.929687 2.929687 7.675781 0 10.605469l-31.667969 31.667968c-1.464844 1.464844-3.386719 2.195313-5.304687 2.195313zm0 0"/><path d="m322.015625 425.675781c-1.980469 0-3.957031-.777343-5.429687-2.324219l-30.90625-32.410156c-2.859376-2.996094-2.746094-7.746094.25-10.601562 3-2.859375 7.746093-2.746094 10.605468.25l30.90625 32.410156c2.859375 2.996094 2.746094 7.746094-.253906 10.605469-1.453125 1.382812-3.3125 2.070312-5.171875 2.070312zm0 0"/><path d="m126.46875 220.617188c-1.976562 0-3.953125-.777344-5.429688-2.320313l-30.90625-32.414063c-2.859374-2.996093-2.746093-7.742187.253907-10.601562 2.996093-2.859375 7.742187-2.746094 10.601562.25l30.910157 32.410156c2.855468 3 2.746093 7.746094-.253907 10.605469-1.453125 1.386719-3.316406 2.070313-5.175781 2.070313zm0 0"/></g><path d="m236.390625 41.222656c-4.144531 0-7.5-3.355468-7.5-7.5v-13.164062c0-4.144532 3.355469-7.5 7.5-7.5s7.5 3.355468 7.5 7.5v13.164062c0 4.140625-3.355469 7.5-7.5 7.5zm0 0" fill="#464646"/><path d="m289.5625 41.222656c-4.140625 0-7.5-3.355468-7.5-7.5v-13.164062c0-4.144532 3.359375-7.5 7.5-7.5 4.144531 0 7.5 3.355468 7.5 7.5v13.164062c0 4.140625-3.355469 7.5-7.5 7.5zm0 0" fill="#464646"/><path d="m342.734375 41.222656c-4.140625 0-7.5-3.355468-7.5-7.5v-13.164062c0-4.144532 3.359375-7.5 7.5-7.5 4.144531 0 7.5 3.355468 7.5 7.5v13.164062c0 4.140625-3.355469 7.5-7.5 7.5zm0 0" fill="#464646"/></svg>