<svg fill="none" height="512" viewBox="0 0 24 24" width="512" xmlns="http://www.w3.org/2000/svg"><path d="m16.3788 6.20698c-1.1903-.95239-2.6354-1.70698-4.3788-1.70698-4.14213 0-7.5 3.35786-7.5 7.5 0 4.1421 3.35787 7.5 7.5 7.5 3.2549 0 6.028-2.0746 7.0646-4.9744.1859-.5201.7104-.8688 1.2507-.7543l.9782.2074c.5403.1145.8901.6475.7244 1.1744-1.3392 4.2581-5.3163 7.3469-10.0179 7.3469-5.79899 0-10.5-4.701-10.5-10.5 0-5.79899 4.70101-10.5 10.5-10.5 2.7835 0 4.9516 1.26847 6.5112 2.5746l1.7817-1.78171c.286-.286.7161-.37155 1.0898-.21677s.6173.51942.6173.92388v5.5c0 .55228-.4477 1-1 1h-5.5c-.4044 0-.7691-.24364-.9239-.61732-.1547-.37367-.0692-.80379.2168-1.08979z" fill="#1e1e1e"/></svg>